<?xml version="1.0" encoding="UTF-8"?>
<svg version="1.1" xmlns="http://www.w3.org/2000/svg" width="820" height="678">
<path d="M0 0 C270.6 0 541.2 0 820 0 C820 223.74 820 447.48 820 678 C549.4 678 278.8 678 0 678 C0 454.26 0 230.52 0 0 Z " fill="#F5F5F5" transform="translate(0,0)"/>
<path d="M0 0 C1.41238449 0.00432037 1.41238449 0.00432037 2.853302 0.00872803 C8.36567921 0.02840864 13.87779249 0.06338842 19.39001465 0.10864258 C21.35274743 0.12261666 23.3155404 0.12765658 25.27832031 0.13085938 C39.62701176 0.17788885 53.73432916 1.996384 67.9375 3.875 C68.86585663 3.99538635 69.79421326 4.11577271 70.7507019 4.23980713 C84.00115322 5.9808751 96.80366902 8.57766716 109.6875 12.125 C110.69614105 12.40111115 110.69614105 12.40111115 111.72515869 12.68280029 C115.78972284 13.80331297 119.83441408 14.98376724 123.875 16.1875 C125.55819336 16.67573242 125.55819336 16.67573242 127.27539062 17.17382812 C132.96924626 18.86027803 138.3863994 20.72872146 143.76733398 23.24291992 C146.32859231 24.41950306 148.96463984 25.32307067 151.625 26.25 C172.534195 34.22818759 191.96014723 47.954249 208.328125 63.01171875 C209.93619279 64.45205761 211.59198299 65.84042564 213.28515625 67.1796875 C216.90833319 70.11357712 219.73024777 73.53487278 222.6875 77.125 C223.45320313 78.053125 224.21890625 78.98125 225.0078125 79.9375 C235.38529459 92.95001673 244.2220114 107.59109951 249.8125 123.3125 C250.06386719 123.97830078 250.31523438 124.64410156 250.57421875 125.33007812 C265.58880918 167.34734821 254.6875 214.5056218 254.6875 259.125 C87.7075 259.125 -79.2725 259.125 -251.3125 259.125 C-251.3125 109.58994586 -251.3125 109.58994586 -207.9375 65.4375 C-201.83453522 59.37061008 -195.3115091 54.11492037 -188.3125 49.125 C-187.7752832 48.73280273 -187.23806641 48.34060547 -186.68457031 47.93652344 C-178.43785709 41.95092684 -169.70716986 37.04107062 -160.6875 32.3125 C-159.66301758 31.77326904 -158.63853516 31.23403809 -157.58300781 30.6784668 C-150.33522223 26.95220742 -142.95410337 23.94191737 -135.3125 21.125 C-134.03516893 20.62175009 -132.75886457 20.11587199 -131.484375 19.60546875 C-89.75334943 3.83723877 -44.23683562 -0.1494471 0 0 Z " fill="#B0B0B0" transform="translate(408.3125,378.875)"/>
<path d="M0 0 C2.47715559 -0.00965094 4.95345984 -0.04073396 7.43041992 -0.07226562 C21.72861783 -0.16868618 35.45649449 1.39722511 48.9440918 6.42773438 C49.77312012 6.7288916 50.60214844 7.03004883 51.45629883 7.34033203 C89.90797538 21.63035193 121.20953146 48.57211628 139.9440918 85.24023438 C141.44638143 88.5339431 142.71651851 91.89198243 143.90893555 95.31054688 C144.94247005 98.35256462 144.94247005 98.35256462 146.44799805 101.65429688 C158.19613752 129.81302282 157.19088001 162.25308152 149.9440918 191.24023438 C149.74654297 192.05878906 149.54899414 192.87734375 149.34545898 193.72070312 C146.64967204 204.69008835 142.34780054 214.35162505 136.9440918 224.24023438 C136.45851807 225.15482422 136.45851807 225.15482422 135.96313477 226.08789062 C118.25249943 259.43826851 86.10674485 286.93009173 49.88574219 298.20898438 C32.98468193 303.26970065 16.51506929 305.41824891 -1.1184082 305.42773438 C-2.32045898 305.43998047 -3.52250977 305.45222656 -4.76098633 305.46484375 C-11.8128766 305.47638531 -18.20785175 304.87518092 -25.0559082 303.24023438 C-26.4466453 302.97099229 -27.83856246 302.70776135 -29.23168945 302.45117188 C-53.9720712 297.57608826 -74.81910531 286.91353256 -94.50048828 271.42602539 C-95.97406674 270.30262709 -97.51415308 269.26807112 -99.0559082 268.24023438 C-99.0559082 267.58023437 -99.0559082 266.92023438 -99.0559082 266.24023438 C-99.64243164 265.97726562 -100.22895508 265.71429688 -100.83325195 265.44335938 C-109.68423749 260.65231624 -116.16516967 250.19179371 -122.0559082 242.24023438 C-122.70245361 241.36818359 -122.70245361 241.36818359 -123.36206055 240.47851562 C-134.51316049 225.1924487 -142.97196129 207.75054125 -147.0559082 189.24023438 C-147.24910645 188.36592773 -147.44230469 187.49162109 -147.64135742 186.59082031 C-151.96326714 166.16318174 -153.08031754 144.82485685 -149.0559082 124.24023438 C-148.93763672 123.59924805 -148.81936523 122.95826172 -148.69750977 122.29785156 C-142.39566563 88.8964741 -123.3526462 56.81300747 -97.0559082 35.24023438 C-96.07106445 34.43070313 -95.0862207 33.62117188 -94.0715332 32.78710938 C-66.90085665 10.95397995 -34.69416613 0.08133828 0 0 Z " fill="#B0B0B0" transform="translate(409.055908203125,41.759765625)"/>
</svg>
